<svg version="1.1" id="Layer_1" xmlns="http://www.w3.org/2000/svg" xmlns:xlink="http://www.w3.org/1999/xlink" x="0px" y="0px"
	 width="100%" viewBox="0 0 640 640" enable-background="new 0 0 640 640" xml:space="preserve">
<path fill="#FFFFFF" opacity="1.000000" stroke="none" 
	d="
M345.000000,641.000000 
	C230.000015,641.000000 115.500038,641.000000 1.000046,641.000000 
	C1.000031,427.666718 1.000031,214.333450 1.000015,1.000132 
	C214.333237,1.000088 427.666473,1.000088 640.999756,1.000044 
	C640.999878,214.333191 640.999878,427.666382 640.999939,640.999756 
	C542.500000,641.000000 444.000000,641.000000 345.000000,641.000000 
M113.842583,228.249329 
	C113.842583,228.249329 113.655991,228.587341 112.956657,228.761566 
	C98.748154,235.033997 86.612068,244.342346 75.658455,255.121185 
	C51.047661,279.339294 36.515007,308.374237 33.683979,343.161102 
	C31.701012,367.527313 34.601772,391.039246 44.717270,413.286713 
	C74.023041,477.740234 141.672913,510.214508 210.451187,493.095947 
	C228.927505,488.497314 245.783905,480.524933 260.760864,468.161469 
	C261.033508,468.285065 261.249969,468.473267 261.141327,469.578247 
	C257.002960,491.513306 258.280548,512.960815 267.536133,533.500305 
	C286.024261,574.528198 326.843964,597.757812 372.387878,593.116272 
	C405.864532,589.704407 430.549133,572.323059 448.693787,544.412964 
	C448.693787,544.412964 448.986877,544.408203 449.542572,544.810181 
	C454.351074,546.232178 459.159576,547.654114 464.559601,549.507263 
	C467.039368,549.953003 469.519104,550.398804 472.650543,551.001038 
	C473.095825,551.013672 473.541107,551.026306 474.635803,551.421631 
	C476.423828,551.569336 478.211884,551.717041 480.659607,551.997314 
	C481.106812,551.997070 481.553986,551.996826 482.735077,552.339600 
	C489.492096,552.232239 496.249146,552.124878 503.674469,552.077637 
	C504.116302,552.015564 504.558167,551.953491 505.817017,551.977356 
	C507.876068,551.646057 509.935089,551.314819 512.821594,551.024353 
	C566.672241,542.960999 618.532898,489.476257 608.678040,419.055969 
	C603.637878,383.040161 584.400574,356.033081 554.517517,336.149109 
	C552.677856,334.925018 550.283936,334.533997 547.714172,333.111145 
	C547.570435,331.686462 547.192810,330.240875 547.317993,328.840240 
	C549.217102,307.588470 547.591980,286.596619 542.418213,265.923767 
	C520.843811,179.719223 428.883087,103.695175 312.810852,133.601715 
	C286.558685,140.365723 263.589600,153.425766 242.353134,170.259689 
	C210.470078,148.030884 171.131790,149.354630 141.907990,174.211685 
	C125.462723,188.199677 115.381393,205.893326 113.842583,228.249329 
M557.067871,89.256035 
	C534.788940,91.422470 513.162781,115.883629 518.687927,142.602524 
	C523.970825,168.149933 548.436401,184.602325 573.938171,178.592499 
	C599.276245,172.621246 614.385010,146.462967 607.053467,121.536568 
	C601.960388,104.220749 584.432068,86.645020 557.067871,89.256035 
M257.384491,118.033821 
	C263.454926,125.284218 271.125244,129.541641 280.635803,129.941483 
	C298.541107,130.694214 313.073761,117.849365 314.839813,99.899368 
	C316.458527,83.446976 304.233521,68.566971 286.704376,65.653450 
	C273.833527,63.514187 260.813477,70.001984 254.020050,81.939812 
	C247.714157,93.020927 248.924408,107.863319 257.384491,118.033821 
M509.021667,81.341019 
	C510.379791,82.801620 511.630096,84.383606 513.114563,85.701988 
	C519.838196,91.673279 529.888184,92.603798 537.773315,88.079063 
	C546.041809,83.334358 550.665955,73.639709 548.544922,64.772530 
	C546.390320,55.764908 540.878235,49.772633 531.654114,47.736485 
	C522.371399,45.687378 514.811951,48.888435 509.363861,56.386101 
	C503.719940,64.153214 503.790375,72.454079 509.021667,81.341019 
z"/>
<path fill="#D9019D" opacity="1.000000" stroke="none" 
	d="
M261.410217,468.726074 
	C261.249969,468.473267 261.033508,468.285065 260.316284,467.830688 
	C233.131882,448.748932 211.567749,425.392487 196.483612,396.268951 
	C183.298050,370.811066 177.818420,343.497406 176.990143,314.739471 
	C177.007019,313.944366 176.959549,313.488342 176.991882,312.591553 
	C177.044357,309.765503 177.017029,307.380249 177.066071,304.577759 
	C177.343750,301.118256 177.545074,298.075989 177.850220,294.608734 
	C179.181442,286.331268 180.145020,278.426544 181.688736,270.636749 
	C185.397491,251.922180 193.017105,234.691544 202.533325,217.923492 
	C213.604950,199.873123 227.489609,184.650208 242.911194,170.739517 
	C263.589600,153.425766 286.558685,140.365723 312.810852,133.601715 
	C428.883087,103.695175 520.843811,179.719223 542.418213,265.923767 
	C547.591980,286.596619 549.217102,307.588470 547.317993,328.840240 
	C547.192810,330.240875 547.570435,331.686462 547.573914,333.648315 
	C546.990662,336.113617 546.386230,338.020538 546.129028,339.973175 
	C542.367737,368.530579 532.094849,394.524323 515.492676,418.035400 
	C500.637421,439.072632 482.098450,456.286743 460.488220,470.773743 
	C439.323608,483.968781 416.646240,492.083405 392.047363,496.066284 
	C368.394257,499.276581 345.253326,498.749176 322.216431,494.020416 
	C300.300323,489.521698 280.227661,480.646088 261.410217,468.726074 
M459.145020,338.500183 
	C458.770782,313.689484 459.216125,288.831696 457.795410,264.081085 
	C456.328918,238.532181 436.581818,218.324966 410.905334,217.275284 
	C378.669556,215.957413 346.299469,215.941803 314.062805,217.239487 
	C286.930786,218.331680 266.909668,239.609192 266.165680,266.904694 
	C265.331238,297.519653 265.331268,328.192291 266.162811,358.807404 
	C266.914856,386.495178 287.975861,407.909302 315.617126,408.772308 
	C346.559998,409.738403 377.570862,409.579224 408.524536,408.805847 
	C432.291382,408.212006 451.200256,392.305054 456.393921,369.235413 
	C458.561859,359.605743 458.296387,349.428223 459.145020,338.500183 
z"/>
<path fill="#869CFE" opacity="1.000000" stroke="none" 
	d="
M176.925812,315.078552 
	C177.818420,343.497406 183.298050,370.811066 196.483612,396.268951 
	C211.567749,425.392487 233.131882,448.748932 260.106384,467.773621 
	C245.783905,480.524933 228.927505,488.497314 210.451187,493.095947 
	C141.672913,510.214508 74.023041,477.740234 44.717270,413.286713 
	C34.601772,391.039246 31.701012,367.527313 33.683979,343.161102 
	C36.515007,308.374237 51.047661,279.339294 75.658455,255.121185 
	C86.612068,244.342346 98.748154,235.033997 113.353821,229.085876 
	C113.710167,233.166153 113.510391,236.928207 113.654846,240.677032 
	C114.476868,262.009888 123.164413,279.822754 138.413651,294.460999 
	C148.370605,304.019012 159.723206,311.347809 173.715454,314.352051 
	C174.235855,314.676697 174.590958,314.766968 175.208954,314.910339 
	C175.648605,314.936493 175.825363,314.909576 176.226807,314.960999 
	C176.451492,315.039337 176.925812,315.078552 176.925812,315.078552 
z"/>
<path fill="#758DFF" opacity="1.000000" stroke="none" 
	d="
M460.821533,470.654022 
	C482.098450,456.286743 500.637421,439.072632 515.492676,418.035400 
	C532.094849,394.524323 542.367737,368.530579 546.129028,339.973175 
	C546.386230,338.020538 546.990662,336.113617 547.790771,333.970428 
	C550.283936,334.533997 552.677856,334.925018 554.517517,336.149109 
	C584.400574,356.033081 603.637878,383.040161 608.678040,419.055969 
	C618.532898,489.476257 566.672241,542.960999 512.243896,550.695557 
	C508.795105,548.037476 506.710754,549.147705 505.000000,551.891418 
	C504.558167,551.953491 504.116302,552.015564 503.167664,551.711670 
	C498.389099,547.659790 487.130676,548.014526 482.001190,551.996582 
	C481.553986,551.996826 481.106812,551.997070 480.266907,551.603516 
	C477.952423,549.747009 476.045776,547.760742 473.986389,551.038940 
	C473.541107,551.026306 473.095825,551.013672 472.243896,550.575073 
	C469.214172,549.791443 466.591125,549.433777 463.968079,549.076111 
	C459.159576,547.654114 454.351074,546.232178 449.356018,544.239746 
	C462.262268,520.800415 465.945435,496.429962 460.821533,470.654022 
z"/>
<path fill="#FFCD01" opacity="1.000000" stroke="none" 
	d="
M261.275757,469.152161 
	C280.227661,480.646088 300.300323,489.521698 322.216431,494.020416 
	C345.253326,498.749176 368.394257,499.276581 392.188049,496.403748 
	C406.455139,518.287720 424.854797,534.353149 448.400818,544.403259 
	C430.549133,572.323059 405.864532,589.704407 372.387878,593.116272 
	C326.843964,597.757812 286.024261,574.528198 267.536133,533.500305 
	C258.280548,512.960815 257.002960,491.513306 261.275757,469.152161 
z"/>
<path fill="#869CFE" opacity="1.000000" stroke="none" 
	d="
M557.513916,89.194427 
	C584.432068,86.645020 601.960388,104.220749 607.053467,121.536568 
	C614.385010,146.462967 599.276245,172.621246 573.938171,178.592499 
	C548.436401,184.602325 523.970825,168.149933 518.687927,142.602524 
	C513.162781,115.883629 534.788940,91.422470 557.513916,89.194427 
z"/>
<path fill="#E7C333" opacity="1.000000" stroke="none" 
	d="
M173.550125,314.117676 
	C159.723206,311.347809 148.370605,304.019012 138.413651,294.460999 
	C123.164413,279.822754 114.476868,262.009888 113.654846,240.677032 
	C113.510391,236.928207 113.710167,233.166153 113.703484,228.998779 
	C113.655991,228.587341 113.842583,228.249329 114.272209,227.962326 
	C136.814331,217.471603 160.165894,213.882843 184.298798,215.124786 
	C190.324570,215.434891 196.281219,217.088135 202.269638,218.124054 
	C193.017105,234.691544 185.397491,251.922180 181.688736,270.636749 
	C180.145020,278.426544 179.181442,286.331268 177.485657,294.714050 
	C177.008072,298.494537 176.998901,301.744751 176.989716,304.994965 
	C177.017029,307.380249 177.044357,309.765503 176.764496,312.744873 
	C176.305603,313.853516 176.153870,314.368073 176.002121,314.882660 
	C175.825363,314.909576 175.648605,314.936493 175.036926,314.693848 
	C174.251389,314.322083 173.900757,314.219879 173.550125,314.117676 
z"/>
<path fill="#FFD733" opacity="1.000000" stroke="none" 
	d="
M202.533325,217.923492 
	C196.281219,217.088135 190.324570,215.434891 184.298798,215.124786 
	C160.165894,213.882843 136.814331,217.471603 114.372467,227.797363 
	C115.381393,205.893326 125.462723,188.199677 141.907990,174.211685 
	C171.131790,149.354630 210.470078,148.030884 242.632172,170.499603 
	C227.489609,184.650208 213.604950,199.873123 202.533325,217.923492 
z"/>
<path fill="#869CFE" opacity="1.000000" stroke="none" 
	d="
M257.151337,117.758018 
	C248.924408,107.863319 247.714157,93.020927 254.020050,81.939812 
	C260.813477,70.001984 273.833527,63.514187 286.704376,65.653450 
	C304.233521,68.566971 316.458527,83.446976 314.839813,99.899368 
	C313.073761,117.849365 298.541107,130.694214 280.635803,129.941483 
	C271.125244,129.541641 263.454926,125.284218 257.151337,117.758018 
z"/>
<path fill="#7583CC" opacity="1.000000" stroke="none" 
	d="
M448.547302,544.408081 
	C424.854797,534.353149 406.455139,518.287720 392.581726,496.429962 
	C416.646240,492.083405 439.323608,483.968781 460.488220,470.773743 
	C465.945435,496.429962 462.262268,520.800415 449.078186,544.038696 
	C448.986877,544.408203 448.693787,544.412964 448.547302,544.408081 
z"/>
<path fill="#E54EBA" opacity="1.000000" stroke="none" 
	d="
M508.820221,81.032120 
	C503.790375,72.454079 503.719940,64.153214 509.363861,56.386101 
	C514.811951,48.888435 522.371399,45.687378 531.654114,47.736485 
	C540.878235,49.772633 546.390320,55.764908 548.544922,64.772530 
	C550.665955,73.639709 546.041809,83.334358 537.773315,88.079063 
	C529.888184,92.603798 519.838196,91.673279 513.114563,85.701988 
	C511.630096,84.383606 510.379791,82.801620 508.820221,81.032120 
z"/>
<path fill="#788FFF" opacity="1.000000" stroke="none" 
	d="
M482.368134,552.168091 
	C487.130676,548.014526 498.389099,547.659790 502.833496,551.681519 
	C496.249146,552.124878 489.492096,552.232239 482.368134,552.168091 
z"/>
<path fill="#788FFF" opacity="1.000000" stroke="none" 
	d="
M505.408508,551.934387 
	C506.710754,549.147705 508.795105,548.037476 511.830139,550.675171 
	C509.935089,551.314819 507.876068,551.646057 505.408508,551.934387 
z"/>
<path fill="#788FFF" opacity="1.000000" stroke="none" 
	d="
M464.263855,549.291687 
	C466.591125,549.433777 469.214172,549.791443 471.918030,550.496826 
	C469.519104,550.398804 467.039368,549.953003 464.263855,549.291687 
z"/>
<path fill="#788FFF" opacity="1.000000" stroke="none" 
	d="
M474.311096,551.230225 
	C476.045776,547.760742 477.952423,549.747009 479.937073,551.537231 
	C478.211884,551.717041 476.423828,551.569336 474.311096,551.230225 
z"/>
<path fill="#FFFCFE" opacity="1.000000" stroke="none" 
	d="
M459.141174,339.000000 
	C458.296387,349.428223 458.561859,359.605743 456.393921,369.235413 
	C451.200256,392.305054 432.291382,408.212006 408.524536,408.805847 
	C377.570862,409.579224 346.559998,409.738403 315.617126,408.772308 
	C287.975861,407.909302 266.914856,386.495178 266.162811,358.807404 
	C265.331268,328.192291 265.331238,297.519653 266.165680,266.904694 
	C266.909668,239.609192 286.930786,218.331680 314.062805,217.239487 
	C346.299469,215.941803 378.669556,215.957413 410.905334,217.275284 
	C436.581818,218.324966 456.328918,238.532181 457.795410,264.081085 
	C459.216125,288.831696 458.770782,313.689484 459.141174,339.000000 
M441.927979,319.500000 
	C441.618896,302.851288 441.581146,286.191986 440.932343,269.556519 
	C440.113098,248.551163 426.357086,234.510376 405.340454,234.111740 
	C376.885132,233.572021 348.404083,233.515015 319.949799,234.064392 
	C297.273346,234.502243 283.443817,248.720413 283.106232,271.463196 
	C282.698517,298.931580 282.709656,326.414795 283.097168,353.883728 
	C283.423462,377.013763 297.559845,391.433807 320.601501,391.847443 
	C348.236694,392.343536 375.895081,392.359802 403.529388,391.838898 
	C426.570099,391.404572 440.208954,377.346436 441.046814,354.455292 
	C441.460907,343.141296 441.640656,331.818695 441.927979,319.500000 
z"/>
<path fill="#EAD624" opacity="1.000000" stroke="none" 
	d="
M177.066071,304.577759 
	C176.998901,301.744751 177.008072,298.494537 177.381821,295.139038 
	C177.545074,298.075989 177.343750,301.118256 177.066071,304.577759 
z"/>
<path fill="#EAD624" opacity="1.000000" stroke="none" 
	d="
M176.226807,314.960999 
	C176.153870,314.368073 176.305603,313.853516 176.684723,313.185608 
	C176.959549,313.488342 177.007019,313.944366 176.990143,314.739471 
	C176.925812,315.078552 176.451492,315.039337 176.226807,314.960999 
z"/>
<path fill="#EAD624" opacity="1.000000" stroke="none" 
	d="
M173.715454,314.352051 
	C173.900757,314.219879 174.251389,314.322083 174.774033,314.640778 
	C174.590958,314.766968 174.235855,314.676697 173.715454,314.352051 
z"/>
<path fill="#D9029D" opacity="1.000000" stroke="none" 
	d="
M441.927185,320.000000 
	C441.640656,331.818695 441.460907,343.141296 441.046814,354.455292 
	C440.208954,377.346436 426.570099,391.404572 403.529388,391.838898 
	C375.895081,392.359802 348.236694,392.343536 320.601501,391.847443 
	C297.559845,391.433807 283.423462,377.013763 283.097168,353.883728 
	C282.709656,326.414795 282.698517,298.931580 283.106232,271.463196 
	C283.443817,248.720413 297.273346,234.502243 319.949799,234.064392 
	C348.404083,233.515015 376.885132,233.572021 405.340454,234.111740 
	C426.357086,234.510376 440.113098,248.551163 440.932343,269.556519 
	C441.581146,286.191986 441.618896,302.851288 441.927185,320.000000 
M313.823944,300.439178 
	C313.519928,307.182739 312.221710,314.056519 313.084747,320.647247 
	C316.735168,348.524872 344.420776,367.509735 372.266083,361.786072 
	C400.232330,356.037537 417.882935,327.438263 410.387634,300.017639 
	C404.575928,278.756073 385.447388,263.381348 364.319458,262.990082 
	C340.035919,262.540405 321.379852,276.119812 313.823944,300.439178 
M407.777924,251.075577 
	C402.351196,255.699478 400.935822,260.555756 403.451569,265.919891 
	C405.613495,270.529724 410.876373,273.354187 415.730164,272.441925 
	C420.549072,271.536224 423.758545,268.828278 425.196960,264.032166 
	C426.601257,259.349670 425.214752,255.414383 421.790375,252.332306 
	C417.849426,248.785324 413.284668,248.104446 407.777924,251.075577 
z"/>
<path fill="#FEFBFE" opacity="1.000000" stroke="none" 
	d="
M313.901367,300.035675 
	C321.379852,276.119812 340.035919,262.540405 364.319458,262.990082 
	C385.447388,263.381348 404.575928,278.756073 410.387634,300.017639 
	C417.882935,327.438263 400.232330,356.037537 372.266083,361.786072 
	C344.420776,367.509735 316.735168,348.524872 313.084747,320.647247 
	C312.221710,314.056519 313.519928,307.182739 313.901367,300.035675 
M345.800507,340.857849 
	C358.507294,347.452179 370.896820,346.985657 382.207092,338.097717 
	C393.053833,329.574005 396.579285,317.946930 393.325043,304.682648 
	C389.809937,290.355164 377.566315,280.970551 362.855316,280.519623 
	C348.749176,280.087250 335.665863,289.289307 331.287537,302.722626 
	C326.638824,316.985352 331.991272,331.518311 345.800507,340.857849 
z"/>
<path fill="#FEF9FD" opacity="1.000000" stroke="none" 
	d="
M408.120422,250.904541 
	C413.284668,248.104446 417.849426,248.785324 421.790375,252.332306 
	C425.214752,255.414383 426.601257,259.349670 425.196960,264.032166 
	C423.758545,268.828278 420.549072,271.536224 415.730164,272.441925 
	C410.876373,273.354187 405.613495,270.529724 403.451569,265.919891 
	C400.935822,260.555756 402.351196,255.699478 408.120422,250.904541 
z"/>
<path fill="#D9019D" opacity="1.000000" stroke="none" 
	d="
M345.491211,340.653320 
	C331.991272,331.518311 326.638824,316.985352 331.287537,302.722626 
	C335.665863,289.289307 348.749176,280.087250 362.855316,280.519623 
	C377.566315,280.970551 389.809937,290.355164 393.325043,304.682648 
	C396.579285,317.946930 393.053833,329.574005 382.207092,338.097717 
	C370.896820,346.985657 358.507294,347.452179 345.491211,340.653320 
z"/>
</svg>